<?xml version="1.0" encoding="utf-8"?>
<!-- Generator: Adobe Illustrator 27.5.0, SVG Export Plug-In . SVG Version: 6.00 Build 0)  -->
<svg version="1.1" xmlns="http://www.w3.org/2000/svg" xmlns:xlink="http://www.w3.org/1999/xlink" x="0px" y="0px"
	 viewBox="0 0 3710 3710" style="enable-background:new 0 0 3710 3710;" xml:space="preserve">
<g id="Background">
	<g>
		<g>
			<!-- <rect style="fill:#FFFFFF;" width="3710" height="3710"/> -->
			<rect style="fill:#599;" width="3710" height="3710"/>
		</g>
	</g>
</g>
<g id="Illustration">
	<g>
		<linearGradient id="SVGID_1_" gradientUnits="userSpaceOnUse" x1="3579.3374" y1="4045.1475" x2="1132.5875" y2="1006.4376">
			<stop  offset="0" style="stop-color:#DAE3FE"/>
			<stop  offset="1" style="stop-color:#E9EFFD"/>
		</linearGradient>
		<path style="fill:url(#SVGID_1_);" d="M2906.221,2846.79c-56.201,59.166-109.377,97.321-151.392,127.467
			c-493.865,354.354-1078.239,251.062-1202.435,225.836c-183.398-37.249-537.903-109.251-794.204-410.656
			c-387.762-456-327.381-1174.415-26.607-1648.65c55.016-86.746,345.628-568.205,936.296-645.416
			c357.466-46.727,774.156,47.516,1075.912,300.327C3377.203,1326.372,3332.111,2398.427,2906.221,2846.79z"/>
		<g>
			<g>
				
					<linearGradient id="SVGID_00000135659236670944725410000018016525934804733611_" gradientUnits="userSpaceOnUse" x1="1223.7043" y1="1952.0129" x2="2818.6497" y2="1952.0129" gradientTransform="matrix(0.9998 -0.0219 0.0219 0.9998 28.2232 -27.654)">
					<stop  offset="0" style="stop-color:#09005D"/>
					<stop  offset="1" style="stop-color:#1A0F91"/>
				</linearGradient>
				<path style="fill:url(#SVGID_00000135659236670944725410000018016525934804733611_);" d="M1409.575,708.075
					c-61.84,5.378-109.252,57.168-109.428,119.241c-1.077,379.603-2.853,1688.954,21.889,2152.391
					c2.621,49.097,42.873,87.666,92.037,88.196c243.167,2.617,942.629,7.427,1339.717-17.972
					c82.707-5.291,147.067-73.791,146.967-156.667c-0.483-398.406-6.848-1518.863-61.423-2031.011
					c-6.539-61.363-55.866-109.26-117.39-114.054C2456.733,727.536,1752.461,678.255,1409.575,708.075z"/>
				
					<linearGradient id="SVGID_00000131345180982554374970000013808019553337445794_" gradientUnits="userSpaceOnUse" x1="1800.6761" y1="2188.4397" x2="4670.0869" y2="-1567.514">
					<stop  offset="0" style="stop-color:#4F52FF"/>
					<stop  offset="1" style="stop-color:#4042E2"/>
				</linearGradient>
				<path style="fill:url(#SVGID_00000131345180982554374970000013808019553337445794_);" d="M1397.757,926.799
					c-4.776,324.717-18.372,1404.913,5.363,1803.595c3.469,58.273,48.734,104.279,104.626,106.227
					c230.123,8.02,820.236,23.539,1156.493-13.461c60.549-6.662,106.825-59.145,108.438-122.694
					c8.411-331.372,31.131-1337.451,8.063-1731.674c-3.68-62.89-51.727-113.071-111.956-117.129
					c-249.169-16.79-889.004-55.509-1174.946-31.697C1440.161,824.435,1398.584,870.582,1397.757,926.799z"/>
				
					<linearGradient id="SVGID_00000082339366463811368190000003112880787898506164_" gradientUnits="userSpaceOnUse" x1="1953.6627" y1="767.076" x2="2212.313" y2="767.076">
					<stop  offset="0" style="stop-color:#4F52FF"/>
					<stop  offset="1" style="stop-color:#4042E2"/>
				</linearGradient>
				<path style="fill:url(#SVGID_00000082339366463811368190000003112880787898506164_);" d="M1953.762,764.534
					c0.197,8.971,7.351,16.216,16.32,16.489c44.28,1.345,169.017,5.164,224.77,7.173c10.993,0.396,19.393-9.662,17.074-20.415
					c-0.191-0.339-1.619-14.126-15.699-15.104c-37.714-2.623-151.496-9.693-226.686-5.355
					C1954.101,748.213,1953.262,765.772,1953.762,764.534z"/>
			</g>
		</g>
		<g>
			<g>
				<g style="opacity:0.3;">
					<path style="fill:#91B3FA;" d="M904.148,1203.902c-6.558,1.884-13.615-1.455-16.226-7.919
						c-5.715-14.137-10.898-28.734-15.41-43.382c-2.195-7.127,1.801-14.683,8.926-16.877c0.086-0.025,0.17-0.049,0.253-0.073
						c7.05-2.025,14.455,1.96,16.623,9.001c4.285,13.917,9.211,27.781,14.638,41.211c2.795,6.911-0.543,14.782-7.458,17.575
						C905.049,1203.621,904.599,1203.772,904.148,1203.902z M872.518,1090.631c-0.507,0.146-1.03,0.263-1.564,0.351
						c-7.357,1.203-14.299-3.788-15.502-11.145c-2.468-15.114-4.314-30.483-5.486-45.678c-0.574-7.434,4.961-13.901,12.42-14.502
						c7.434-0.572,13.923,4.993,14.496,12.421c1.115,14.444,2.87,29.043,5.218,43.407
						C883.215,1082.308,879.003,1088.768,872.518,1090.631z M866.616,973.213c-1.444,0.415-2.984,0.594-4.57,0.495
						c-7.44-0.469-13.096-6.877-12.63-14.318c0.952-15.252,2.582-30.654,4.844-45.776c1.108-7.374,7.981-12.448,15.348-11.355
						c7.372,1.103,12.457,7.977,11.354,15.348c-2.149,14.36-3.696,28.982-4.602,43.468
						C875.995,966.931,871.948,971.681,866.616,973.213z M887.122,857.399c-2.387,0.686-4.992,0.72-7.549-0.037
						c-7.148-2.117-11.226-9.63-9.109-16.777c4.347-14.663,9.378-29.313,14.954-43.545c2.724-6.933,10.552-10.355,17.495-7.642
						c6.94,2.72,10.361,10.553,7.642,17.495c-5.297,13.515-10.078,27.43-14.203,41.365
						C894.99,852.846,891.407,856.168,887.122,857.399z M932.938,749.068c-3.348,0.962-7.063,0.635-10.337-1.206
						c-6.502-3.651-8.811-11.882-5.158-18.379c7.471-13.299,15.618-26.469,24.216-39.132c4.182-6.172,12.578-7.782,18.749-3.592
						c6.167,4.187,7.775,12.58,3.589,18.753c-8.174,12.037-15.916,24.553-23.017,37.192
						C939.168,745.929,936.232,748.122,932.938,749.068z M1001.573,653.577c-4.336,1.245-9.196,0.293-12.789-2.954
						c-5.532-5-5.964-13.534-0.967-19.067c10.243-11.336,21.103-22.378,32.276-32.807c5.453-5.089,13.993-4.793,19.081,0.659
						c5.086,5.446,4.792,13.99-0.657,19.078c-10.616,9.912-20.933,20.398-30.667,31.17
						C1006.097,651.597,1003.911,652.905,1001.573,653.577z M1468.141,486.125c-1.797,0.516-3.726,0.665-5.694,0.374
						c-14.347-2.122-28.981-3.646-43.492-4.526c-7.44-0.452-13.108-6.851-12.655-14.289c0.449-7.442,6.848-13.109,14.291-12.658
						c15.283,0.927,30.696,2.529,45.805,4.762c7.377,1.091,12.47,7.956,11.379,15.33
						C1476.976,480.526,1473.072,484.708,1468.141,486.125z M1089.606,575.721c-5.382,1.546-11.382-0.385-14.778-5.225
						c-4.283-6.105-2.805-14.523,3.297-18.805c12.509-8.777,25.552-17.116,38.769-24.786c6.464-3.711,14.709-1.553,18.453,4.899
						c3.742,6.447,1.547,14.709-4.901,18.454c-12.552,7.281-24.937,15.2-36.816,23.534
						C1092.366,574.675,1091.007,575.319,1089.606,575.721z M1350.612,482.148c-0.856,0.246-1.749,0.415-2.672,0.488
						c-14.468,1.144-29.077,2.932-43.423,5.302c-7.357,1.213-14.306-3.764-15.521-11.118c-1.213-7.354,3.749-14.337,11.118-15.521
						c15.095-2.493,30.469-4.373,45.691-5.581c7.433-0.588,13.937,4.961,14.524,12.392
						C1360.845,474.617,1356.653,480.412,1350.612,482.148z M1192.823,519.482c-6.548,1.881-13.596-1.444-16.217-7.895
						c-2.807-6.908,0.517-14.781,7.423-17.593c14.142-5.746,28.722-10.96,43.338-15.487c0.089-0.031,0.183-0.058,0.275-0.085
						c7.039-2.022,14.435,1.949,16.615,8.977c2.208,7.124-1.773,14.686-8.897,16.891c-13.881,4.305-27.729,9.259-41.166,14.721
						C1193.74,519.191,1193.282,519.35,1192.823,519.482z"/>
					<path style="fill:#91B3FA;" d="M1560.274,508.418c-2.555,0.734-5.352,0.725-8.061-0.197c-6.589-2.244-13.334-4.383-20.05-6.371
						c-7.149-2.111-11.235-9.622-9.121-16.769c2.11-7.151,9.622-11.245,16.772-9.119c7.065,2.085,14.158,4.339,21.093,6.697
						c7.057,2.401,10.835,10.072,8.433,17.126C1567.86,504.138,1564.379,507.239,1560.274,508.418z"/>
				</g>
				<g style="opacity:0.3;">
					<path style="fill:#91B3FA;" d="M1867.2,782.609c-6.262,1.799-13.078-1.159-15.935-7.246c-2.953-6.3-6.09-12.647-9.322-18.856
						c-3.442-6.615-0.87-14.766,5.743-18.207c6.642-3.455,14.767-0.867,18.208,5.743c3.401,6.539,6.705,13.221,9.818,19.855
						c3.165,6.75,0.259,14.788-6.49,17.955C1868.559,782.163,1867.882,782.413,1867.2,782.609z"/>
					<path style="fill:#91B3FA;" d="M1537.023,1511.418c-5.97,1.715-11.992,3.334-18.064,4.859
						c-7.231,1.814-14.566-2.575-16.382-9.806s2.601-14.601,9.803-16.384c14.013-3.52,27.852-7.599,41.285-12.182
						c7.067-2.397,14.727,1.36,17.135,8.416c2.409,7.06-1.362,14.733-8.418,17.138
						C1554.074,1506.295,1545.541,1508.971,1537.023,1511.418z M1448.81,1528.871c-0.724,0.208-1.48,0.359-2.256,0.445
						c-14.969,1.661-30.177,2.704-45.197,3.101c-7.451,0.198-13.653-5.685-13.851-13.133c-0.196-7.454,5.694-13.678,13.139-13.852
						c14.266-0.378,28.711-1.372,42.938-2.946c7.409-0.822,14.081,4.52,14.903,11.926
						C1459.22,1521.048,1455.016,1527.089,1448.81,1528.871z M1627.865,1475.916c-6.117,1.757-12.811-1.022-15.773-6.914
						c-3.349-6.665-0.662-14.777,5.999-18.128c12.744-6.403,25.384-13.441,37.575-20.926c6.361-3.89,14.668-1.909,18.567,4.444
						c3.9,6.358,1.909,14.67-4.445,18.57c-12.838,7.879-26.153,15.291-39.572,22.037
						C1629.449,1475.384,1628.661,1475.688,1627.865,1475.916z M1333.054,1528.879c-1.647,0.473-3.411,0.634-5.219,0.434
						c-14.955-1.668-30.02-3.996-44.773-6.918c-7.312-1.449-12.065-8.55-10.616-15.862c1.448-7.318,8.545-12.072,15.864-10.619
						c14.008,2.774,28.312,4.985,42.516,6.568c7.409,0.823,12.746,7.504,11.92,14.911
						C1342.122,1522.993,1338.155,1527.414,1333.054,1528.879z M1724.814,1412.847c-5.018,1.441-10.638-0.115-14.165-4.408
						c-4.733-5.761-3.899-14.269,1.863-19.002c11.016-9.045,21.799-18.693,32.053-28.672c5.342-5.2,13.889-5.087,19.09,0.261
						c5.197,5.343,5.081,13.886-0.262,19.085c-10.794,10.507-22.147,20.664-33.746,30.19
						C1728.182,1411.506,1726.532,1412.353,1724.814,1412.847z M1805.579,1330.029c-4.011,1.152-8.5,0.433-12.042-2.329
						c-5.877-4.588-6.923-13.072-2.335-18.948c8.797-11.272,17.222-23.046,25.04-34.992c4.074-6.245,12.438-7.994,18.686-3.908
						c6.239,4.084,7.986,12.448,3.906,18.689c-8.228,12.573-17.093,24.962-26.352,36.822
						C1810.661,1327.697,1808.225,1329.269,1805.579,1330.029z M1866.367,1231.574c-3.051,0.876-6.419,0.686-9.513-0.784
						c-6.734-3.196-9.601-11.249-6.403-17.984c6.14-12.928,11.802-26.251,16.825-39.61c2.624-6.975,10.401-10.509,17.388-7.88
						c6.976,2.627,10.506,10.408,7.88,17.389c-5.289,14.055-11.245,28.083-17.705,41.684
						C1873.11,1228.03,1869.961,1230.542,1866.367,1231.574z M1904.234,1122.213c-2.114,0.607-4.404,0.705-6.701,0.185
						c-7.271-1.647-11.827-8.876-10.179-16.147c3.163-13.95,5.765-28.188,7.733-42.326c1.029-7.384,7.857-12.538,15.229-11.512
						c7.386,1.027,12.539,7.849,11.51,15.232c-2.072,14.892-4.812,29.889-8.141,44.572
						C1912.555,1117.195,1908.813,1120.897,1904.234,1122.213z M1917.174,1007.162c-1.188,0.341-2.445,0.521-3.743,0.521
						c-7.454-0.004-13.495-6.053-13.488-13.506c0.008-14.267-0.591-28.721-1.787-42.971c-0.623-7.431,4.918-13.955,12.324-14.578
						c7.429-0.625,13.958,4.895,14.581,12.326c1.258,15,1.891,30.219,1.879,45.238
						C1926.935,1000.348,1922.81,1005.543,1917.174,1007.162z M1904.531,892.157c-0.266,0.076-0.538,0.143-0.811,0.205
						c-7.276,1.618-14.489-2.97-16.105-10.247c-2.284-10.273-4.912-20.595-7.812-30.691c-1.05-3.654-2.141-7.291-3.263-10.902
						c-2.213-7.122,1.764-14.689,8.884-16.898c7.164-2.381,14.683,1.763,16.897,8.879c1.183,3.803,2.326,7.622,3.431,11.468
						c3.05,10.618,5.814,21.482,8.215,32.286C1915.526,883.26,1911.335,890.203,1904.531,892.157z"/>
					<path style="fill:#91B3FA;" d="M1219.835,1503.282c-2.58,0.741-5.402,0.723-8.127-0.217
						c-6.907-2.388-13.894-4.968-20.768-7.668c-6.941-2.725-10.358-10.56-7.632-17.498c2.728-6.939,10.553-10.361,17.498-7.632
						c6.53,2.563,13.167,5.013,19.724,7.282c7.044,2.432,10.782,10.119,8.347,17.167
						C1227.382,1499.035,1223.915,1502.11,1219.835,1503.282z"/>
				</g>
				<g>
					<path style="fill:#91B3FA;" d="M1194.117,1347.761c2.211,1.534,5.153,1.497,7.324-0.093l61.954-45.37
						c33.348,13.187,69.04,21.153,105.896,23.047l37.517,66.944c1.316,2.349,3.977,3.603,6.625,3.125l90.642-16.376
						c2.649-0.48,4.702-2.587,5.114-5.245l11.719-75.841c33.864-14.673,64.511-34.622,91.136-58.647l73.914,20.823
						c2.59,0.729,5.359-0.265,6.893-2.476l52.513-75.673c1.535-2.213,1.498-5.154-0.093-7.325l-45.37-61.953
						c13.188-33.348,21.152-69.041,23.046-105.897l66.946-37.518c2.348-1.315,3.602-3.976,3.124-6.625l-16.377-90.643
						c-0.478-2.649-2.585-4.702-5.245-5.112l-75.841-11.719c-14.672-33.864-34.621-64.512-58.646-91.136l20.823-73.915
						c0.729-2.589-0.265-5.359-2.476-6.893l-75.674-52.513c-2.212-1.536-5.153-1.497-7.325,0.093l-61.954,45.371
						c-33.348-13.189-69.04-21.153-105.896-23.047l-37.518-66.946c-1.316-2.347-3.976-3.602-6.625-3.125l-90.642,16.378
						c-2.649,0.478-4.702,2.584-5.113,5.245l-11.719,75.841c-33.864,14.671-64.512,34.622-91.137,58.646l-73.913-20.822
						c-2.591-0.731-5.361,0.264-6.895,2.475l-52.513,75.674c-1.535,2.211-1.497,5.153,0.093,7.325l45.37,61.953
						c-13.188,33.348-21.152,69.041-23.046,105.897l-66.946,37.518c-2.347,1.315-3.603,3.976-3.123,6.626l16.376,90.641
						c0.479,2.649,2.585,4.703,5.245,5.114l75.841,11.719c14.672,33.863,34.622,64.51,58.646,91.136l-20.821,73.914
						c-0.73,2.591,0.264,5.359,2.475,6.895L1194.117,1347.761z"/>
					<g>
						<path style="fill:#BDD0FB;" d="M1412.353,1078.256c-43.379,12.46-90.617-8.453-109.813-50.748
							c-21.098-46.493-0.44-101.474,46.048-122.574c22.521-10.227,47.675-11.061,70.821-2.363
							c23.151,8.695,41.531,25.888,51.749,48.41c21.099,46.493,0.44,101.474-46.048,122.574
							C1420.92,1075.456,1416.653,1077.021,1412.353,1078.256z M1367.393,920.962c-3.35,0.962-6.648,2.173-9.881,3.639
							c-35.643,16.174-51.48,58.337-35.307,93.978c16.177,35.645,58.332,51.501,93.981,35.308
							c35.643-16.174,51.48-58.337,35.307-93.977c-7.838-17.269-21.927-30.45-39.679-37.119
							C1397.387,917.373,1381.941,916.784,1367.393,920.962z"/>
					</g>
					<path style="fill:#BDD0FB;" d="M1451.09,1206.262c-7.45,2.14-15.051,3.918-22.783,5.315l0,0
						c-2.433,0.441-4.875,0.841-7.322,1.203c-12.066,1.781-24.254,2.6-36.377,2.444c-0.165-0.002-0.33-0.004-0.495-0.005
						c-0.469-0.008-0.937-0.016-1.407-0.029c-0.913-0.018-1.826-0.046-2.737-0.075c-2.398-0.079-4.378-1.71-5.01-3.899
						c-0.153-0.532-0.225-1.098-0.206-1.68c0.099-2.98,2.602-5.306,5.578-5.212c15.337,0.516,30.831-0.62,46.054-3.375
						c75.623-13.65,135.029-65.212,162.196-131.543c15.115-36.892,20.251-78.357,12.65-120.415
						c-1.331-7.376-3.025-14.63-5.069-21.735c-13.741-47.822-43.266-89.119-84.697-117.867
						c-47.588-33.025-105.191-45.541-162.19-35.242c-117.719,21.282-196.106,134.294-174.846,251.958
						c1.31,7.255,2.984,14.417,5.008,21.456c8.767,30.504,24.112,58.751,45.032,82.66c0.54,0.619,0.915,1.323,1.125,2.063
						c0.559,1.946-0.006,4.133-1.634,5.555c-2.252,1.958-5.655,1.745-7.621-0.51c-21.963-25.101-38.076-54.757-47.28-86.781
						c-2.125-7.389-3.881-14.905-5.259-22.519c-22.322-123.538,60.059-242.196,183.552-264.511
						c59.841-10.813,120.309,2.328,170.268,36.998c43.495,30.179,74.49,73.534,88.918,123.737c2.143,7.46,3.921,15.075,5.321,22.814
						c10.811,59.845-2.327,120.314-36.995,170.273C1544.677,1160.843,1501.306,1191.839,1451.09,1206.262z"/>
				</g>
			</g>
			<g>
				<g style="opacity:0.3;">
					<path style="fill:#91B3FA;" d="M559.594,1672.998c-3.467,0.996-7.31-0.349-9.339-3.552
						c-3.792-5.977-7.454-12.151-10.883-18.349c-2.228-4.028-0.771-9.097,3.26-11.331c4.026-2.249,9.102-0.768,11.331,3.26
						c3.268,5.907,6.758,11.791,10.375,17.496c2.466,3.883,1.311,9.035-2.575,11.507
						C561.071,1672.464,560.341,1672.783,559.594,1672.998z"/>
					<path style="fill:#91B3FA;" d="M530.358,1615.911c-4.061,1.167-8.427-0.909-10.03-4.912
						c-4.537-11.312-8.543-22.987-11.906-34.694c-0.708-2.465-1.39-4.946-2.052-7.442c-1.174-4.457,1.763-8.918,5.927-10.199
						c4.452-1.177,9.014,1.478,10.194,5.924c0.631,2.386,1.281,4.758,1.958,7.113c3.208,11.168,7.029,22.302,11.351,33.09
						c1.716,4.276-0.36,9.126-4.632,10.844C530.897,1615.739,530.628,1615.834,530.358,1615.911z M508.224,1532.217
						c-0.379,0.109-0.773,0.197-1.172,0.253c-4.565,0.625-8.772-2.564-9.401-7.127c-2.018-14.636-3.144-29.527-3.345-44.252
						c-0.065-4.607,3.641-8.382,8.221-8.452c4.608-0.061,8.387,3.614,8.452,8.221c0.193,14.05,1.27,28.252,3.191,42.212
						C514.742,1527.228,512.145,1531.091,508.224,1532.217z M507.047,1445.656c-1.017,0.292-2.106,0.392-3.221,0.273
						c-4.576-0.507-7.871-4.635-7.364-9.211c1.634-14.66,4.199-29.383,7.639-43.746c1.071-4.485,5.558-7.239,10.051-6.166
						c4.475,1.07,7.238,5.571,6.168,10.046c-3.278,13.699-5.729,27.73-7.283,41.713
						C512.649,1442.022,510.198,1444.751,507.047,1445.656z M527.188,1361.45c-1.66,0.477-3.478,0.44-5.217-0.204
						c-4.311-1.617-6.501-6.426-4.885-10.736c5.187-13.841,11.275-27.475,18.105-40.534c2.137-4.078,7.18-5.646,11.252-3.52
						c4.081,2.131,5.659,7.167,3.525,11.254c-6.511,12.443-12.321,25.455-17.265,38.65
						C531.738,1358.932,529.641,1360.746,527.188,1361.45z M567.282,1284.721c-2.317,0.666-4.905,0.325-7.045-1.153
						c-3.787-2.614-4.736-7.805-2.124-11.597c8.389-12.144,17.604-23.888,27.394-34.901c3.057-3.454,8.329-3.756,11.771-0.695
						c3.442,3.061,3.753,8.333,0.695,11.77c-9.341,10.511-18.132,21.711-26.133,33.302
						C570.699,1283.096,569.07,1284.207,567.282,1284.721z M624.778,1220.056c-3.001,0.862-6.369-0.01-8.57-2.512
						c-3.038-3.456-2.695-8.722,0.76-11.764c11.087-9.742,22.888-18.883,35.073-27.161c3.828-2.582,8.996-1.592,11.585,2.213
						c2.588,3.806,1.596,8.995-2.21,11.58c-11.621,7.896-22.868,16.607-33.437,25.894
						C627.021,1219.148,625.924,1219.726,624.778,1220.056z M696.319,1171.423c-3.756,1.079-7.872-0.61-9.715-4.215
						c-2.097-4.099-0.474-9.123,3.625-11.224c13.096-6.701,26.784-12.666,40.686-17.735c4.362-1.507,9.118,0.66,10.691,4.986
						c1.577,4.325-0.653,9.109-4.977,10.689c-13.265,4.827-26.32,10.517-38.805,16.907
						C697.331,1171.082,696.828,1171.277,696.319,1171.423z M820.445,1134.669c-0.462,0.133-0.946,0.229-1.445,0.28
						c-12.09,1.262-24.323,3.208-36.362,5.785c-1.826,0.38-3.614,0.775-5.392,1.192c-4.489,1.035-8.967-1.753-10.006-6.241
						c-1.049-4.494,1.743-9.108,6.236-10.009c1.9-0.435,3.798-0.862,5.712-1.26c12.579-2.689,25.403-4.73,38.082-6.05
						c4.582-0.477,8.679,2.845,9.156,7.426C826.853,1129.872,824.261,1133.573,820.445,1134.669z"/>
				</g>
				<g style="opacity:0.3;">
					<path style="fill:#91B3FA;" d="M958.565,1821.295c-4.375,1.257-8.963-1.238-10.282-5.611
						c-1.329-4.405,1.167-9.061,5.577-10.387c13.274-3.999,26.416-8.842,39.061-14.396c4.206-1.801,9.137,0.06,10.989,4.281
						c1.852,4.22-0.07,9.135-4.281,10.989c-13.264,5.817-27.04,10.901-40.953,15.092
						C958.64,1821.274,958.6,1821.285,958.565,1821.295z M917.058,1831.125c-0.29,0.083-0.58,0.149-0.882,0.202
						c-14.299,2.498-28.895,4.149-43.382,4.913c-4.6,0.237-8.522-3.287-8.763-7.886c-0.247-4.606,3.314-8.517,7.884-8.771
						c13.825-0.726,27.752-2.304,41.397-4.682c4.534-0.794,8.853,2.244,9.644,6.777
						C923.696,1825.923,921.096,1829.965,917.058,1831.125z M1036.505,1787.048c-3.553,1.021-7.484-0.426-9.465-3.754
						c-2.351-3.95-1.054-9.067,2.903-11.423c11.917-7.099,23.502-14.976,34.433-23.428c3.663-2.805,8.88-2.144,11.694,1.504
						c2.816,3.639,2.145,8.88-1.498,11.697c-11.46,8.857-23.607,17.116-36.102,24.551
						C1037.838,1786.572,1037.178,1786.855,1036.505,1787.048z M831.991,1835.549c-0.911,0.262-1.883,0.372-2.885,0.304
						c-14.489-1.014-29.062-2.936-43.309-5.715c-4.521-0.879-7.47-5.258-6.591-9.78c0.883-4.506,5.262-7.458,9.777-6.586
						c13.586,2.646,27.476,4.476,41.291,5.447c4.592,0.324,8.057,4.31,7.733,8.902
						C837.754,1831.708,835.263,1834.609,831.991,1835.549z M1103.849,1734.979c-2.837,0.815-6.022,0.095-8.237-2.149
						c-3.242-3.279-3.208-8.557,0.064-11.794c9.843-9.723,19.19-20.151,27.784-31.006c2.862-3.618,8.107-4.218,11.716-1.357
						c3.609,2.86,4.218,8.107,1.358,11.716c-9.016,11.375-18.815,22.313-29.131,32.511
						C1106.374,1733.916,1105.145,1734.607,1103.849,1734.979z M1156.739,1668.273c-2.172,0.624-4.584,0.368-6.659-0.901
						c-3.927-2.404-5.164-7.539-2.76-11.465c7.241-11.831,13.829-24.202,19.577-36.765c1.918-4.193,6.87-6.031,11.051-4.115
						c4.188,1.915,6.027,6.859,4.112,11.043c-6.026,13.175-12.928,26.145-20.516,38.542
						C1160.413,1666.464,1158.672,1667.718,1156.739,1668.273z M1192.129,1590.811c-1.526,0.438-3.191,0.451-4.82-0.072
						c-4.39-1.391-6.817-6.082-5.423-10.472c4.207-13.212,7.631-26.802,10.181-40.385c0.854-4.515,5.211-7.503,9.734-6.65
						c4.526,0.851,7.505,5.206,6.655,9.736c-2.679,14.24-6.268,28.494-10.673,42.356
						C1196.903,1588.084,1194.719,1590.067,1192.129,1590.811z"/>
					<path style="fill:#91B3FA;" d="M748.012,1819.169c-1.546,0.444-3.235,0.446-4.88-0.089c-6.785-2.211-13.534-4.635-20.065-7.198
						c-4.283-1.684-6.398-6.524-4.715-10.811c1.692-4.273,6.522-6.389,10.811-4.715c6.226,2.448,12.667,4.757,19.141,6.871
						c4.379,1.427,6.769,6.137,5.341,10.512C752.751,1816.469,750.582,1818.43,748.012,1819.169z"/>
				</g>
				<g>
					<path style="fill:#91B3FA;" d="M724.938,1713.731c1.479,1.027,3.448,1.002,4.901-0.062l41.457-30.36
						c22.315,8.824,46.198,14.155,70.861,15.422l25.105,44.796c0.88,1.572,2.661,2.411,4.433,2.091l60.654-10.958
						c1.773-0.321,3.146-1.731,3.422-3.51l7.841-50.749c22.66-9.818,43.168-23.167,60.984-39.243l49.46,13.934
						c1.734,0.488,3.586-0.177,4.613-1.657l35.139-50.637c1.027-1.481,1.002-3.449-0.063-4.902l-30.36-41.456
						c8.825-22.315,14.155-46.199,15.422-70.862l44.797-25.104c1.571-0.881,2.411-2.661,2.091-4.433l-10.959-60.654
						c-0.32-1.773-1.73-3.147-3.51-3.421l-50.75-7.842c-9.817-22.66-23.167-43.168-39.243-60.984l13.933-49.461
						c0.488-1.733-0.177-3.586-1.656-4.612l-50.638-35.14c-1.479-1.027-3.448-1.001-4.901,0.062l-41.457,30.361
						c-22.314-8.826-46.198-14.155-70.861-15.422l-25.106-44.797c-0.88-1.571-2.66-2.411-4.433-2.091l-60.654,10.959
						c-1.772,0.32-3.146,1.729-3.421,3.51l-7.841,50.749c-22.661,9.817-43.169,23.167-60.985,39.244l-49.459-13.933
						c-1.734-0.489-3.587,0.177-4.614,1.657l-35.139,50.637c-1.026,1.48-1.002,3.448,0.062,4.901l30.359,41.457
						c-8.825,22.315-14.154,46.199-15.421,70.862l-44.798,25.105c-1.57,0.88-2.411,2.661-2.089,4.433l10.958,60.653
						c0.321,1.773,1.73,3.147,3.51,3.422l50.75,7.842c9.818,22.66,23.167,43.167,39.242,60.984l-13.933,49.46
						c-0.488,1.734,0.177,3.586,1.657,4.614L724.938,1713.731z"/>
					<g>
						<path style="fill:#BDD0FB;" d="M871.192,1534.49c-12.928,3.713-26.649,3.19-39.468-1.624
							c-15.769-5.925-28.286-17.638-35.247-32.979c-14.37-31.656-0.302-69.108,31.363-83.489
							c31.735-14.334,69.128-0.295,83.496,31.369c6.965,15.341,7.536,32.476,1.61,48.24c-5.923,15.772-17.635,28.294-32.981,35.252
							C877.096,1532.557,874.162,1533.637,871.192,1534.49z M841.123,1429.228c-2.156,0.62-4.29,1.402-6.394,2.354
							c-23.29,10.578-33.638,38.125-23.068,61.419c5.12,11.279,14.328,19.902,25.925,24.254c11.604,4.359,24.2,3.926,35.491-1.18
							l0,0c11.283-5.121,19.9-14.332,24.257-25.927c4.359-11.604,3.937-24.207-1.185-35.494
							C886.535,1433.466,862.859,1422.985,841.123,1429.228z"/>
					</g>
					<path style="fill:#BDD0FB;" d="M898.039,1623.624c-5.071,1.457-10.256,2.666-15.553,3.629
						c-10.521,1.904-21.247,2.74-31.906,2.481c-0.479-0.015-0.958-0.03-1.437-0.045c-3.704-0.122-6.761-2.641-7.736-6.021
						c-0.236-0.821-0.347-1.696-0.317-2.594c0.153-4.602,4.019-8.186,8.612-8.048c9.949,0.336,19.979-0.402,29.811-2.183
						l0.004-0.001c0.54-0.096,1.081-0.201,1.616-0.304c23.232-4.428,44.48-14.479,62.298-29.084
						c9.671-7.929,18.332-17.211,25.74-27.683c0.06-0.085,0.12-0.17,0.181-0.255c0.182-0.265,0.367-0.521,0.546-0.784
						c21.376-30.809,29.481-68.098,22.813-104.999c-0.859-4.777-1.957-9.469-3.279-14.07c-8.896-30.958-28.012-57.692-54.834-76.309
						c-30.809-21.377-68.097-29.474-104.993-22.806c-36.873,6.677-68.997,27.307-90.38,58.109
						c-21.376,30.808-29.481,68.098-22.813,104.999c0.845,4.696,1.931,9.332,3.239,13.886c5.678,19.752,15.609,38.035,29.152,53.51
						c0.834,0.955,1.413,2.042,1.738,3.186c0.863,3.005-0.009,6.382-2.522,8.578c-3.474,3.022-8.73,2.685-11.769-0.788
						c-15.152-17.317-26.268-37.777-32.622-59.867c-1.466-5.102-2.679-10.286-3.628-15.537
						c-7.459-41.29,1.606-83.007,25.527-117.477c23.919-34.462,59.798-57.577,101.108-65.011c41.285-7.462,83,1.599,117.469,25.525
						c30.009,20.819,51.392,50.731,61.345,85.367c1.477,5.141,2.707,10.396,3.672,15.735
						C1023.558,1524.696,974.489,1601.666,898.039,1623.624z"/>
				</g>
			</g>
		</g>
		<g>
			<path style="fill:#7D97F4;" d="M2040.288,2811.709c-0.881-10.927-12.042-20.385-30.941-27.967
				c20.538-11.325,31.9-23.463,30.941-35.368c-2.905-36.025-116.988-56.22-254.812-45.107
				c-137.824,11.113-247.198,49.325-244.293,85.348c0.879,10.928,12.042,20.385,30.941,27.967
				c-20.54,11.326-31.901,23.464-30.941,35.369c0.879,10.925,12.042,20.383,30.941,27.966
				c-20.54,11.325-31.901,23.464-30.941,35.369c0.879,10.927,12.042,20.385,30.941,27.966
				c-20.54,11.326-31.901,23.464-30.941,35.369c1.285,15.932,24.342,28.76,61.557,37.161c-0.483,11.774-0.213,24.678,0.943,38.925
				c5.391,66.381,80.058,118.428,178.813,118.428c98.758,0,184.232-70.965,185.203-137.557c0.237-16.319-0.458-30.684-1.935-43.45
				c47.252-15.778,76.03-35.053,74.523-53.749c-0.881-10.927-12.042-20.385-30.941-27.966c20.538-11.326,31.9-23.464,30.941-35.369
				c-0.881-10.927-12.042-20.385-30.941-27.966C2029.885,2835.752,2041.246,2823.614,2040.288,2811.709z"/>
			<g>
				
					<linearGradient id="SVGID_00000110456492342344303070000002471346588519351683_" gradientUnits="userSpaceOnUse" x1="2013.7612" y1="1625.0768" x2="1891.9474" y2="2349.1948">
					<stop  offset="0" style="stop-color:#4F52FF"/>
					<stop  offset="1" style="stop-color:#4042E2"/>
				</linearGradient>
				<path style="fill:url(#SVGID_00000110456492342344303070000002471346588519351683_);" d="M1721.701,3030.118
					c-40.931,0-78.385-3.01-109.33-8.937c-1.796-0.343-2.972-2.077-2.629-3.873c0.343-1.793,2.07-2.972,3.873-2.628
					c48.422,9.27,113.096,11.313,182.112,5.749c56.473-4.554,109.285-13.662,152.729-26.341c1.76-0.513,3.594,0.494,4.105,2.249
					c0.513,1.755-0.494,3.592-2.249,4.105c-43.869,12.803-97.139,21.996-154.052,26.585
					C1770.625,3029.094,1745.572,3030.118,1721.701,3030.118z"/>
				
					<linearGradient id="SVGID_00000006705986219558489280000009114542833478474908_" gradientUnits="userSpaceOnUse" x1="2013.1241" y1="1624.9741" x2="1891.3104" y2="2349.0923">
					<stop  offset="0" style="stop-color:#4F52FF"/>
					<stop  offset="1" style="stop-color:#4042E2"/>
				</linearGradient>
				<path style="fill:url(#SVGID_00000006705986219558489280000009114542833478474908_);" d="M1722.389,2966.725
					c-53.182,0-100.708-5.001-134.232-14.548c-1.758-0.5-2.776-2.331-2.278-4.089c0.503-1.76,2.327-2.776,4.091-2.278
					c47.77,13.602,124.686,17.819,205.757,11.284c80.193-6.466,154.982-22.739,200.062-43.531c1.662-0.762,3.628-0.04,4.394,1.62
					c0.764,1.66,0.039,3.627-1.62,4.393c-45.751,21.099-121.379,37.592-202.304,44.117
					C1771.006,2965.728,1746.131,2966.725,1722.389,2966.725z"/>
				
					<linearGradient id="SVGID_00000086664979140123348960000009220472047422268567_" gradientUnits="userSpaceOnUse" x1="1998.7692" y1="1622.5593" x2="1876.9552" y2="2346.6777">
					<stop  offset="0" style="stop-color:#4F52FF"/>
					<stop  offset="1" style="stop-color:#4042E2"/>
				</linearGradient>
				<path style="fill:url(#SVGID_00000086664979140123348960000009220472047422268567_);" d="M1721.708,2903.436
					c-57.422,0-107.671-5.874-141.491-17.027c-1.738-0.572-2.68-2.444-2.108-4.18c0.572-1.737,2.437-2.681,4.18-2.108
					c47.065,15.52,126.857,20.615,213.439,13.636c80.187-6.464,154.977-22.739,200.062-43.532c1.662-0.761,3.628-0.038,4.394,1.62
					c0.764,1.661,0.039,3.628-1.62,4.393c-45.755,21.1-121.384,37.595-202.304,44.118
					C1770.616,2902.425,1745.542,2903.436,1721.708,2903.436z"/>
				
					<linearGradient id="SVGID_00000008112933993650964650000013118729822934458804_" gradientUnits="userSpaceOnUse" x1="1999.3467" y1="1622.6499" x2="1877.5331" y2="2346.7671">
					<stop  offset="0" style="stop-color:#4F52FF"/>
					<stop  offset="1" style="stop-color:#4042E2"/>
				</linearGradient>
				<path style="fill:url(#SVGID_00000008112933993650964650000013118729822934458804_);" d="M1722.15,2840.072
					c-45.549,0-86.977-3.683-119.185-10.839c-1.785-0.397-2.91-2.165-2.514-3.948c0.397-1.786,2.172-2.913,3.949-2.513
					c48.431,10.761,118.168,13.549,191.326,7.65c79.474-6.408,153.881-22.504,199.041-43.062c1.662-0.761,3.625-0.023,4.383,1.642
					c0.758,1.663,0.023,3.626-1.642,4.385c-45.818,20.857-121.053,37.168-201.25,43.634
					C1770.92,2839.065,1745.97,2840.072,1722.15,2840.072z"/>
			</g>
			
				<linearGradient id="SVGID_00000036246231478808518740000000384777428697498501_" gradientUnits="userSpaceOnUse" x1="1763.8768" y1="1091.1017" x2="1845.0836" y2="2826.8652">
				<stop  offset="0" style="stop-color:#FF928E"/>
				<stop  offset="1" style="stop-color:#FE7062"/>
			</linearGradient>
			<path style="fill:url(#SVGID_00000036246231478808518740000000384777428697498501_);" d="M1448.676,2492.003
				c-16.74-59.29-45.172-114.698-83.464-162.959c-82.049-103.406-215.901-313.705-232.377-600.726
				c-23.964-417.484,346.297-626.5,684.165-598.125c337.869,28.375,671.26,279.944,634.762,668.331
				c-22.458,238.976-156.215,420.242-255.805,524.342c-63.239,66.104-108.349,147.069-132.768,235.232
				c-29.887,107.908-101.013,242.383-270.069,250.58C1574.366,2819.286,1483.512,2615.383,1448.676,2492.003z"/>
			
				<linearGradient id="SVGID_00000033339280648285578790000013288341176335394730_" gradientUnits="userSpaceOnUse" x1="1916.1715" y1="2176.9619" x2="1964.7198" y2="3719.4783">
				<stop  offset="0" style="stop-color:#E1473D"/>
				<stop  offset="1" style="stop-color:#E9605A"/>
			</linearGradient>
			<path style="fill:url(#SVGID_00000033339280648285578790000013288341176335394730_);" d="M1849,2725.425l118.221-768.914
				c2.442-15.884,10.259-26.552,17.46-23.827c7.202,2.727,11.059,17.813,8.618,33.699c-0.066,0.424-0.152,0.946-0.226,1.361
				l-134.661,761.769c-1.012,5.729-3.923,9.346-6.498,8.081C1849.415,2736.367,1848.151,2730.971,1849,2725.425z"/>
			
				<linearGradient id="SVGID_00000048503401394469642510000002431785642102870945_" gradientUnits="userSpaceOnUse" x1="1648.7408" y1="2185.3796" x2="1697.2893" y2="3727.8994">
				<stop  offset="0" style="stop-color:#E1473D"/>
				<stop  offset="1" style="stop-color:#E9605A"/>
			</linearGradient>
			<path style="fill:url(#SVGID_00000048503401394469642510000002431785642102870945_);" d="M1726.283,2731.531l-118.221-768.914
				c-2.441-15.884-10.26-26.552-17.46-23.827c-7.202,2.727-11.059,17.813-8.618,33.699c0.065,0.422,0.153,0.946,0.226,1.361
				l134.661,761.769c1.012,5.729,3.923,9.346,6.498,8.081C1725.868,2742.471,1727.132,2737.077,1726.283,2731.531z"/>
			<path style="opacity:0.71;fill:#FFFFFF;" d="M1966.372,1890.493c-3.002-4.828-9.949-6.631-15.519-4.03l-65.827,30.758
				l-22.85-65.106c-1.209-3.396-4.01-6.408-8.005-8.054c-7.572-3.121-16.628-0.33-20.228,6.234l-0.116,0.212l-54.135,98.706
				l-50.235-140.513l-0.083-0.233c-1.23-3.43-3.823-6.511-7.604-8.574c-8.424-4.599-19.551-2.406-24.857,4.896l-75.682,104.188
				c-3.078,4.27-2.019,9.992,2.666,13.148c5.002,3.371,12.209,2.587,16.095-1.748l66.638-74.334l59.996,133.668l0.045,0.103
				c0.962,2.138,2.772,4.005,5.286,5.181c5.63,2.636,12.659,0.818,15.7-4.063l57.899-92.909l21.791,46.992l0.192,0.418
				c0.158,0.338,0.337,0.671,0.542,0.998c2.999,4.824,9.941,6.625,15.506,4.026l78.138-36.51
				C1967.292,1901.343,1969.374,1895.321,1966.372,1890.493z"/>
			<path style="opacity:0.49;fill:#FFFFFF;" d="M2198.527,2229.92c-4.392,0-8.818-1.358-12.611-4.171
				c-9.391-6.971-11.356-20.236-4.385-29.634c19.995-26.938,38.314-54.766,54.455-82.71c5.847-10.129,18.795-13.597,28.931-7.75
				c10.135,5.847,13.604,18.802,7.75,28.931c-16.948,29.351-36.163,58.544-57.117,86.778
				C2211.392,2226.962,2205.001,2229.92,2198.527,2229.92z"/>
			<path style="opacity:0.49;fill:#FFFFFF;" d="M2295.785,2063.017c-2.813,0-5.675-0.565-8.426-1.758
				c-10.728-4.661-15.651-17.134-10.99-27.869c123.831-285.191,17.223-524.159,16.127-526.544
				c-4.875-10.632-0.207-23.201,10.432-28.083c10.659-4.861,23.215-0.2,28.083,10.432c4.771,10.418,115.502,258.708-15.782,561.067
				C2311.76,2058.245,2303.969,2063.017,2295.785,2063.017z"/>
		</g>
		<g>
			<g style="opacity:0.3;">
				<path style="fill:#BDD0FB;" d="M2274.887,1203.186c4.281-2.682,9.985-1.75,13.165,2.315c6.958,8.89,13.633,18.215,19.839,27.714
					c3.02,4.622,1.722,10.816-2.898,13.834c-0.056,0.035-0.111,0.069-0.166,0.104c-4.602,2.883-10.686,1.562-13.668-3.004
					c-5.896-9.026-12.237-17.882-18.846-26.328c-3.402-4.345-2.637-10.629,1.711-14.031
					C2274.303,1203.57,2274.593,1203.37,2274.887,1203.186z M2320.564,1277.309c0.331-0.207,0.679-0.398,1.041-0.57
					c4.989-2.361,10.949-0.23,13.31,4.759c4.847,10.249,9.305,20.806,13.248,31.378c1.929,5.172-0.686,10.906-5.871,12.859
					c-5.172,1.928-10.928-0.704-12.855-5.872c-3.748-10.049-7.983-20.078-12.592-29.817
					C2314.656,1285.419,2316.331,1279.961,2320.564,1277.309z M2348.784,1359.646c0.943-0.591,2.002-1.033,3.15-1.287
					c5.389-1.188,10.725,2.214,11.916,7.604c2.442,11.047,4.433,22.339,5.917,33.561c0.72,5.473-3.132,10.49-8.598,11.219
					c-5.471,0.723-10.495-3.127-11.219-8.598c-1.409-10.657-3.299-21.377-5.618-31.869
					C2343.396,1366.035,2345.303,1361.827,2348.784,1359.646z M2357.886,1446.244c1.558-0.976,3.404-1.534,5.379-1.518
					c5.519,0.044,9.957,4.556,9.914,10.074c-0.094,11.322-0.676,22.775-1.732,34.042c-0.52,5.49-5.39,9.526-10.885,9.016
					c-5.494-0.515-9.531-5.389-9.017-10.885c1.004-10.699,1.56-21.578,1.644-32.337
					C2353.219,1451.093,2355.088,1447.996,2357.886,1446.244z M2347.448,1532.695c2.185-1.369,4.895-1.896,7.602-1.257
					c5.374,1.268,8.7,6.651,7.43,12.022c-2.595,10.991-5.698,22.028-9.224,32.797c-1.713,5.247-7.357,8.11-12.606,6.391
					c-5.245-1.717-8.105-7.361-6.39-12.609c3.353-10.236,6.302-20.726,8.768-31.171
					C2343.657,1536.204,2345.298,1534.042,2347.448,1532.695z M2318.148,1614.679c2.831-1.773,6.483-2.09,9.704-0.515
					c4.959,2.426,7.012,8.409,4.589,13.369c-4.969,10.161-10.437,20.239-16.253,29.945c-2.839,4.736-8.976,6.273-13.711,3.435
					c-4.733-2.834-6.272-8.974-3.436-13.709c5.526-9.225,10.721-18.796,15.443-28.452
					C2315.334,1617.014,2316.622,1615.636,2318.148,1614.679z M2020.435,1829.27c1.173-0.735,2.515-1.235,3.975-1.431
					c10.642-1.425,21.367-3.334,31.871-5.677c5.387-1.2,10.728,2.193,11.927,7.578c1.203,5.387-2.19,10.728-7.579,11.93
					c-11.063,2.467-22.358,4.48-33.565,5.982c-5.472,0.733-10.5-3.109-11.232-8.58
					C2015.294,1835.061,2017.216,1831.286,2020.435,1829.27z M2271.439,1688.083c3.513-2.201,8.177-2.055,11.583,0.695
					c4.296,3.468,4.967,9.759,1.501,14.054c-7.105,8.804-14.679,17.406-22.514,25.566c-3.84,3.963-10.148,4.114-14.132,0.29
					c-3.981-3.822-4.11-10.149-0.288-14.133c7.441-7.748,14.633-15.917,21.381-24.276
					C2269.688,1689.392,2270.524,1688.656,2271.439,1688.083z M2104.872,1808.057c0.559-0.35,1.159-0.653,1.801-0.894
					c10.06-3.773,20.089-8.034,29.812-12.656c4.987-2.368,10.949-0.248,13.318,4.735c2.367,4.985,0.265,10.968-4.735,13.318
					c-10.231,4.862-20.784,9.345-31.368,13.318c-5.168,1.939-10.931-0.679-12.869-5.846
					C2099.132,1815.508,2100.929,1810.527,2104.872,1808.057z M2209.503,1749.214c4.274-2.678,9.969-1.754,13.153,2.3
					c3.41,4.341,2.656,10.622-1.682,14.036c-8.886,6.982-18.194,13.674-27.667,19.885c-0.057,0.041-0.119,0.079-0.178,0.116
					c-4.595,2.879-10.669,1.566-13.658-2.988c-3.028-4.617-1.743-10.812,2.875-13.838c8.996-5.903,17.836-12.261,26.278-18.895
					C2208.91,1749.609,2209.204,1749.401,2209.503,1749.214z"/>
				<path style="fill:#BDD0FB;" d="M1950.321,1832.255c1.667-1.045,3.66-1.611,5.776-1.509c5.147,0.249,10.384,0.391,15.569,0.432
					c5.518,0.04,9.962,4.548,9.92,10.066c-0.038,5.52-4.546,9.969-10.068,9.919c-5.453-0.039-10.961-0.191-16.378-0.45
					c-5.512-0.265-9.769-4.95-9.504-10.46C1945.798,1836.853,1947.641,1833.934,1950.321,1832.255z"/>
			</g>
			<g style="opacity:0.3;">
				<path style="fill:#BDD0FB;" d="M1675.847,1699.954c4.088-2.561,9.542-1.85,12.82,1.896c3.391,3.879,6.921,7.752,10.49,11.509
					c3.802,4.003,3.64,10.328-0.361,14.13c-4.019,3.817-10.329,3.638-14.13-0.362c-3.757-3.957-7.476-8.035-11.047-12.119
					c-3.633-4.155-3.21-10.469,0.945-14.103C1674.972,1700.548,1675.402,1700.232,1675.847,1699.954z"/>
				<path style="fill:#BDD0FB;" d="M1761.68,1113.852c3.897-2.441,7.851-4.826,11.859-7.153c4.774-2.77,10.89-1.147,13.662,3.626
					c2.771,4.773,1.136,10.921-3.623,13.663c-9.25,5.371-18.262,11.105-26.883,17.114c-4.538,3.151-10.757,2.045-13.913-2.483
					c-3.158-4.531-2.045-10.761,2.484-13.916C1750.596,1120.985,1756.12,1117.335,1761.68,1113.852z M1820.874,1083.388
					c0.473-0.296,0.979-0.558,1.514-0.778c10.311-4.244,20.918-8.097,31.524-11.452c5.261-1.665,10.878,1.252,12.542,6.511
					c1.665,5.264-1.254,10.897-6.515,12.544c-10.073,3.187-20.147,6.85-29.948,10.88c-5.103,2.101-10.944-0.335-13.043-5.437
					C1815.068,1091.084,1816.823,1085.926,1820.874,1083.388z M1704.307,1157.696c3.993-2.502,9.324-1.893,12.637,1.693
					c3.746,4.057,3.494,10.379-0.56,14.125c-7.757,7.163-15.311,14.756-22.454,22.576c-3.73,4.069-10.046,4.359-14.12,0.636
					c-4.075-3.726-4.36-10.047-0.636-14.122c7.523-8.232,15.48-16.23,23.648-23.775
					C1703.289,1158.398,1703.788,1158.021,1704.307,1157.696z M1903.234,1059.702c1.075-0.674,2.297-1.149,3.624-1.377
					c10.982-1.872,22.177-3.298,33.271-4.237c5.499-0.465,10.333,3.615,10.798,9.115c0.467,5.503-3.61,10.337-9.115,10.801
					c-10.534,0.892-21.164,2.245-31.594,4.024c-5.44,0.93-10.604-2.731-11.531-8.171
					C1897.986,1065.745,1899.905,1061.788,1903.234,1059.702z M1648.229,1222.403c3.275-2.052,7.593-2.094,10.98,0.239
					c4.546,3.131,5.693,9.355,2.561,13.901c-5.988,8.689-11.686,17.76-16.941,26.958c-2.737,4.793-8.842,6.461-13.636,3.72
					c-4.791-2.739-6.455-8.84-3.718-13.633c5.531-9.684,11.53-19.233,17.835-28.384
					C1646.107,1224.046,1647.107,1223.106,1648.229,1222.403z M1607.706,1297.851c2.618-1.64,5.959-2.047,9.045-0.807
					c5.12,2.063,7.6,7.884,5.537,13.005c-3.953,9.82-7.539,19.921-10.658,30.019c-1.621,5.277-7.214,8.232-12.496,6.603
					c-5.275-1.629-8.229-7.223-6.602-12.499c3.282-10.629,7.055-21.257,11.217-31.59
					C1604.566,1300.55,1605.979,1298.933,1607.706,1297.851z M1584.595,1380.339c1.992-1.248,4.427-1.802,6.929-1.388
					c5.445,0.896,9.132,6.04,8.234,11.486c-1.724,10.455-3.027,21.092-3.868,31.625c-0.44,5.5-5.251,9.605-10.76,9.164
					c-5.501-0.442-9.604-5.256-9.164-10.76c0.888-11.083,2.256-22.282,4.07-33.281
					C1580.522,1384.24,1582.249,1381.808,1584.595,1380.339z M1580.024,1465.897c1.38-0.864,2.989-1.403,4.73-1.503
					c5.51-0.315,10.231,3.896,10.546,9.406c0.603,10.572,1.665,21.235,3.156,31.698c0.779,5.464-3.026,10.528-8.481,11.306
					c-5.465,0.78-10.527-3.019-11.306-8.483c-1.572-11.02-2.691-22.251-3.326-33.379
					C1575.13,1471.17,1577.035,1467.77,1580.024,1465.897z M1594.353,1550.404c0.776-0.486,1.633-0.871,2.557-1.136
					c5.304-1.522,10.841,1.546,12.36,6.85c2.913,10.153,6.296,20.315,10.062,30.209c1.963,5.16-0.645,10.935-5.786,12.894
					c-5.158,1.964-10.933-0.628-12.896-5.787c-3.964-10.415-7.527-21.114-10.591-31.803
					C1588.802,1557.25,1590.675,1552.709,1594.353,1550.404z M1626.876,1629.645c0.174-0.109,0.353-0.212,0.535-0.312
					c4.846-2.64,10.917-0.851,13.555,3.996c3.727,6.842,7.708,13.649,11.836,20.239c1.494,2.385,3.015,4.75,4.552,7.089
					c3.031,4.615,1.75,10.812-2.864,13.841c-4.61,3.16-10.808,1.75-13.839-2.861c-1.62-2.464-3.214-4.947-4.787-7.458
					c-4.342-6.931-8.531-14.095-12.45-21.292C1620.872,1638.225,1622.434,1632.427,1626.876,1629.645z"/>
				<path style="fill:#BDD0FB;" d="M1989.027,1054.754c1.684-1.055,3.695-1.62,5.827-1.508c5.403,0.286,10.902,0.693,16.345,1.208
					c5.496,0.519,9.53,5.394,9.01,10.889c-0.521,5.495-5.389,9.531-10.889,9.01c-5.17-0.488-10.394-0.873-15.524-1.146
					c-5.509-0.289-9.742-4.994-9.45-10.507C1984.526,1059.319,1986.364,1056.422,1989.027,1054.754z"/>
			</g>
			<g>
				<path style="fill:#BDD0FB;" d="M2039.141,1160.147c-1.887-0.639-3.973-0.011-5.192,1.565l-34.8,44.956
					c-26.426-2.561-53.45-0.927-80.061,5.265l-40.389-39.957c-1.417-1.402-3.567-1.75-5.353-0.868l-61.143,30.195
					c-1.787,0.883-2.817,2.802-2.566,4.778l7.177,56.359c-21.093,17.367-38.818,37.831-52.847,60.372l-56.851,0.305
					c-1.992,0.011-3.759,1.284-4.398,3.172l-21.883,64.585c-0.64,1.888-0.011,3.974,1.565,5.193l44.955,34.799
					c-2.561,26.425-0.926,53.45,5.266,80.061l-39.958,40.39c-1.401,1.416-1.75,3.566-0.868,5.353l30.195,61.143
					c0.882,1.787,2.801,2.817,4.778,2.565l56.359-7.176c17.367,21.093,37.83,38.818,60.371,52.847l0.305,56.851
					c0.011,1.991,1.285,3.759,3.172,4.398l64.585,21.883c1.888,0.641,3.973,0.011,5.193-1.564l34.799-44.956
					c26.426,2.562,53.45,0.927,80.061-5.265l40.39,39.958c1.417,1.401,3.566,1.75,5.353,0.868l61.143-30.196
					c1.787-0.882,2.817-2.801,2.565-4.778l-7.177-56.359c21.094-17.366,38.818-37.831,52.848-60.371l56.85-0.305
					c1.993-0.01,3.76-1.285,4.399-3.172l21.883-64.585c0.639-1.887,0.011-3.972-1.564-5.193l-44.955-34.799
					c2.562-26.426,0.926-53.451-5.266-80.061l39.958-40.39c1.401-1.416,1.75-3.566,0.866-5.353l-30.194-61.142
					c-0.883-1.787-2.801-2.817-4.778-2.566l-56.359,7.177c-17.367-21.092-37.831-38.817-60.371-52.847l-0.306-56.85
					c-0.01-1.993-1.284-3.759-3.172-4.399L2039.141,1160.147z"/>
				
					<linearGradient id="SVGID_00000039126821331900603120000005207712363906770326_" gradientUnits="userSpaceOnUse" x1="1906.8368" y1="1454.6819" x2="2043.8656" y2="1454.6819">
					<stop  offset="0" style="stop-color:#DAE3FE"/>
					<stop  offset="1" style="stop-color:#E9EFFD"/>
				</linearGradient>
				<path style="fill:url(#SVGID_00000039126821331900603120000005207712363906770326_);" d="M1938.996,1396.548
					c28.316-17.739,66.205-12.523,88.515,13.643c24.523,28.764,21.072,72.11-7.689,96.633
					c-13.932,11.884-31.659,17.623-49.907,16.17c-18.251-1.451-34.846-9.924-46.723-23.858
					c-24.523-28.764-21.072-72.11,7.688-96.633C1933.474,1400.293,1936.189,1398.307,1938.996,1396.548z M2003.163,1499.267
					c2.187-1.37,4.286-2.906,6.286-4.611c22.052-18.8,24.694-52.039,5.896-74.089c-18.802-22.052-52.039-24.71-74.091-5.897
					c-22.052,18.799-24.695,52.039-5.896,74.089c9.11,10.684,21.83,17.18,35.825,18.293
					C1982.556,1507.957,1993.667,1505.217,2003.163,1499.267z"/>
				
					<linearGradient id="SVGID_00000033355457026509485640000005840807254120201639_" gradientUnits="userSpaceOnUse" x1="1806.3716" y1="1458.5626" x2="2143.5256" y2="1458.5626">
					<stop  offset="0" style="stop-color:#DAE3FE"/>
					<stop  offset="1" style="stop-color:#E9EFFD"/>
				</linearGradient>
				<path style="fill:url(#SVGID_00000033355457026509485640000005840807254120201639_);" d="M1885.248,1313.395
					c4.863-3.047,9.908-5.866,15.123-8.443l0,0c1.641-0.811,3.297-1.595,4.964-2.354c8.221-3.736,16.725-6.811,25.383-9.181
					c0.118-0.032,0.236-0.065,0.354-0.097c0.335-0.09,0.67-0.18,1.007-0.267c0.653-0.174,1.309-0.341,1.963-0.507
					c1.722-0.434,3.465,0.321,4.362,1.75c0.218,0.347,0.385,0.735,0.49,1.153c0.539,2.141-0.766,4.308-2.902,4.85
					c-11.018,2.77-21.81,6.748-32.077,11.822c-51.014,25.183-82.734,74.022-88.495,126.775c-3.208,29.341,1.62,59.895,15.633,88.265
					c2.456,4.976,5.145,9.79,8.053,14.428c19.56,31.215,49.016,54.558,84.375,66.537c40.616,13.763,84.161,10.884,122.61-8.104
					c79.405-39.224,112.06-135.669,72.862-215.04c-2.417-4.894-5.073-9.648-7.953-14.242c-12.478-19.911-29.175-36.87-48.95-49.601
					c-0.51-0.33-0.921-0.754-1.223-1.238c-0.796-1.271-0.841-2.942,0.026-4.286c1.202-1.854,3.666-2.398,5.527-1.196
					c20.761,13.367,38.293,31.171,51.394,52.074c3.023,4.822,5.81,9.811,8.348,14.947c41.155,83.332,6.813,184.612-76.489,225.752
					c-40.366,19.936-86.078,22.955-128.716,8.507c-37.121-12.575-68.043-37.082-88.579-69.851c-3.051-4.87-5.874-9.924-8.453-15.144
					c-19.935-40.369-22.957-86.081-8.51-128.719C1827.951,1364.856,1852.469,1333.93,1885.248,1313.395z"/>
			</g>
		</g>
		<g>
			<g>
				<path style="fill:#91B3FA;" d="M1211.559,3202.203c5.383,0,9.747-4.364,9.747-9.747V2003.718c0-5.384-4.364-9.747-9.747-9.747
					c-5.384,0-9.747,4.363-9.747,9.747v1188.738C1201.812,3197.839,1206.175,3202.203,1211.559,3202.203z"/>
				<path style="fill:#91B3FA;" d="M1410.092,3202.203c5.384,0,9.747-4.364,9.747-9.747V2003.718c0-5.384-4.363-9.747-9.747-9.747
					s-9.747,4.363-9.747,9.747v1188.738C1400.345,3197.839,1404.708,3202.203,1410.092,3202.203z"/>
				<path style="fill:#91B3FA;" d="M597.925,3199.221c-2.131,0-4.265-0.522-6.173-1.511c-6.578-3.411-9.155-11.537-5.745-18.112
					l607.342-1171.391c3.409-6.575,11.534-9.154,18.113-5.745c6.577,3.411,9.153,11.537,5.744,18.112L609.863,3191.965
					C607.543,3196.441,602.968,3199.221,597.925,3199.221z"/>
				<path style="fill:#91B3FA;" d="M886.058,3208.993c-1.848,0-3.651-0.377-5.357-1.12c-3.29-1.432-5.827-4.06-7.14-7.399
					c-1.315-3.341-1.25-6.992,0.183-10.284l519.118-1192.764c2.956-6.787,10.888-9.911,17.681-6.958
					c6.795,2.957,9.916,10.89,6.959,17.684L898.384,3200.916C896.248,3205.823,891.41,3208.993,886.058,3208.993z"/>
				<path style="fill:#91B3FA;" d="M1307.094,2235.204h-210.563c-4.638,0-8.398-3.759-8.398-8.397c0-4.638,3.76-8.398,8.398-8.398
					h210.563c4.637,0,8.397,3.759,8.397,8.398C1315.491,2231.445,1311.731,2235.204,1307.094,2235.204z"/>
				<path style="fill:#91B3FA;" d="M1250.828,2365.647h-210.564c-4.638,0-8.398-3.759-8.398-8.398c0-4.638,3.76-8.397,8.398-8.397
					h210.564c4.637,0,8.397,3.759,8.397,8.397C1259.226,2361.887,1255.465,2365.647,1250.828,2365.647z"/>
				<path style="fill:#91B3FA;" d="M1176.62,2521.841H952.651c-4.638,0-8.398-3.759-8.398-8.397c0-4.639,3.76-8.398,8.398-8.398
					h223.968c4.637,0,8.397,3.759,8.397,8.398C1185.017,2518.082,1181.257,2521.841,1176.62,2521.841z"/>
				<path style="fill:#91B3FA;" d="M1363.046,2108.678h-200.891c-4.637,0-8.397-3.759-8.397-8.398c0-4.638,3.76-8.397,8.397-8.397
					h200.891c4.638,0,8.397,3.759,8.397,8.397C1371.443,2104.919,1367.683,2108.678,1363.046,2108.678z"/>
				<path style="fill:#91B3FA;" d="M1102.721,2701.549H859.365c-4.638,0-8.398-3.759-8.398-8.398c0-4.638,3.76-8.397,8.398-8.397
					h243.356c4.638,0,8.397,3.759,8.397,8.397C1111.118,2697.79,1107.359,2701.549,1102.721,2701.549z"/>
				<path style="fill:#91B3FA;" d="M1045.543,2840.949H784.519c-4.637,0-8.397-3.759-8.397-8.397c0-4.639,3.76-8.398,8.397-8.398
					h261.024c4.638,0,8.398,3.759,8.398,8.398C1053.941,2837.19,1050.181,2840.949,1045.543,2840.949z"/>
			</g>
			
				<linearGradient id="SVGID_00000137840621667962844720000007558713553739404172_" gradientUnits="userSpaceOnUse" x1="1574.7131" y1="1577.0164" x2="1524.3278" y2="1629.6411">
				<stop  offset="0" style="stop-color:#A22B25"/>
				<stop  offset="1" style="stop-color:#C0423C"/>
			</linearGradient>
			<path style="fill:url(#SVGID_00000137840621667962844720000007558713553739404172_);" d="M1491.437,1622.759
				c0,0,9.1-9.772,25.943-6.702c16.843,3.071,31.835,8.923,42.329,0c10.495-8.922,14.184,3.052,14.184,3.052l-31.424,23.889
				L1491.437,1622.759z"/>
			<g>
				
					<linearGradient id="SVGID_00000026852589052444079100000007601604996783810688_" gradientUnits="userSpaceOnUse" x1="950.3959" y1="2500.7891" x2="936.9599" y2="2599.8796">
					<stop  offset="0" style="stop-color:#09005D"/>
					<stop  offset="1" style="stop-color:#1A0F91"/>
				</linearGradient>
				<path style="fill:url(#SVGID_00000026852589052444079100000007601604996783810688_);" d="M994.21,2671.472
					c-26.878-23.399-84.633-42.142-84.633-42.142l-34.749,0.76c-8.819,9.921-12.806,29.148-14.508,41.2
					c6.542,3.921,18.804,7.354,41.287,8.426C943.234,2681.699,976.83,2675.614,994.21,2671.472z"/>
				
					<linearGradient id="SVGID_00000044149428388404155190000010741003875919854489_" gradientUnits="userSpaceOnUse" x1="931.691" y1="2676.157" x2="900.6199" y2="2873.5007">
					<stop  offset="0" style="stop-color:#09005D"/>
					<stop  offset="1" style="stop-color:#1A0F91"/>
				</linearGradient>
				<path style="fill:url(#SVGID_00000044149428388404155190000010741003875919854489_);" d="M994.21,2671.472
					c-17.38,4.142-50.976,10.227-92.604,8.243c-22.482-1.072-34.745-4.504-41.287-8.426c-0.137,0.968-0.264,1.905-0.372,2.771
					c-0.619,4.943,2.439,9.588,7.202,11.049c31.742,9.729,101.557,6.6,128.777,4.913c5.821-0.361,8.86-7.188,5.13-11.673
					C999.119,2676.022,996.8,2673.727,994.21,2671.472z"/>
			</g>
			
				<linearGradient id="SVGID_00000178190532640394727190000001743610442463853741_" gradientUnits="userSpaceOnUse" x1="877.6661" y1="2620.0225" x2="917.5619" y2="2620.0225">
				<stop  offset="0" style="stop-color:#A22B25"/>
				<stop  offset="1" style="stop-color:#C0423C"/>
			</linearGradient>
			<path style="fill:url(#SVGID_00000178190532640394727190000001743610442463853741_);" d="M877.666,2600.089v27.632
				c0,5.322,3.708,9.906,8.909,11.031c5.384,1.164,12.528,1.909,19.462,0.19c4.335-1.075,7.511-4.802,8.033-9.238l3.491-29.614
				H877.666z"/>
			<g>
				
					<linearGradient id="SVGID_00000137832130569976173270000015851784089469437337_" gradientUnits="userSpaceOnUse" x1="1048.5806" y1="2479.7456" x2="956.3669" y2="2556.8699">
					<stop  offset="0" style="stop-color:#09005D"/>
					<stop  offset="1" style="stop-color:#1A0F91"/>
				</linearGradient>
				<path style="fill:url(#SVGID_00000137832130569976173270000015851784089469437337_);" d="M1053.379,2458.508
					c-10.779-23.996-7.696-34.787-29.036-32.399c-2.566,0.287-4.697,0.784-6.496,1.424c-1.346,3.963-1.433,8.343,0.012,12.5
					c5.395,15.525,16.671,42.049,37.362,68.163c4.348,5.488,10.999,8.67,17.999,8.786l23.53,0.392
					C1074.437,2499.539,1062.323,2478.419,1053.379,2458.508z"/>
				
					<linearGradient id="SVGID_00000088853986343174329390000014984584559770500284_" gradientUnits="userSpaceOnUse" x1="890.9573" y1="2460.3142" x2="994.8881" y2="2460.3142">
					<stop  offset="0" style="stop-color:#09005D"/>
					<stop  offset="1" style="stop-color:#1A0F91"/>
				</linearGradient>
				<path style="fill:url(#SVGID_00000088853986343174329390000014984584559770500284_);" d="M1098.242,2481.795
					c-18.059-12.714-24.801-64.643-24.801-64.643l-27.833-14.168l-20.987,15.21c-3.246,2.409-5.537,5.7-6.773,9.34
					c1.799-0.64,3.93-1.137,6.496-1.424c21.34-2.388,18.256,8.403,29.036,32.399c8.944,19.911,21.058,41.031,43.372,58.867
					l16.172,0.27c7.266,0.121,11.462-8.177,7.057-13.957C1114.454,2496.435,1106.895,2487.887,1098.242,2481.795z"/>
			</g>
			
				<linearGradient id="SVGID_00000168825285592818933220000018148395205871074720_" gradientUnits="userSpaceOnUse" x1="1044.3929" y1="2398.04" x2="1100.4377" y2="2398.04">
				<stop  offset="0" style="stop-color:#A22B25"/>
				<stop  offset="1" style="stop-color:#C0423C"/>
			</linearGradient>
			<path style="fill:url(#SVGID_00000168825285592818933220000018148395205871074720_);" d="M1062.412,2376.843l-16.805,26.14
				c-2.123,3.303-1.402,7.675,1.685,10.102c5.386,4.235,14.717,8.971,26.148,4.066l26.997-18.501L1062.412,2376.843z"/>
			
				<linearGradient id="SVGID_00000113314359106955424980000001456022251883769518_" gradientUnits="userSpaceOnUse" x1="1165.2736" y1="2143.0112" x2="756.3126" y2="2505.7861">
				<stop  offset="0" style="stop-color:#09005D"/>
				<stop  offset="1" style="stop-color:#1A0F91"/>
			</linearGradient>
			<path style="fill:url(#SVGID_00000113314359106955424980000001456022251883769518_);" d="M936.276,2100.944
				c0,0-8.838,24.908-21.661,112.426c-12.823,87.518-21.256,151.158-28.247,185.866c-6.393,31.737-16.473,146.043-15.879,196.032
				c0.08,6.718,5.626,12.065,12.341,11.855l33.071-1.033c5.107-0.16,9.39-3.875,10.247-8.912
				c8.75-51.465,69.246-317.031,105.719-393.425c0,0,97.045,27.431,121.24,38.468c0,0-31.28,12.523-95.384,132.7
				c0,0,27.684,21.995,47.291,26.58c0,0,140.279-116.352,155.101-128.523c14.822-12.171,28.318-33.153-9.501-71.368
				c-37.819-38.215-153.886-98.484-153.886-98.484L936.276,2100.944z"/>
			
				<linearGradient id="SVGID_00000148623698818444664660000009100061164887121792_" gradientUnits="userSpaceOnUse" x1="1079.566" y1="1950.9391" x2="925.6057" y2="2378.9836">
				<stop  offset="0" style="stop-color:#4F52FF"/>
				<stop  offset="1" style="stop-color:#4042E2"/>
			</linearGradient>
			<path style="fill:url(#SVGID_00000148623698818444664660000009100061164887121792_);" d="M1026.503,2206.472
				c-0.243,0-0.489-0.053-0.722-0.164l-34.609-13.338c-14.875-7.092-24.542-22.322-24.625-38.803
				c-0.005-0.927,0.744-1.683,1.672-1.688c1.082,0.008,1.682,0.743,1.688,1.671c0.077,15.199,8.992,29.247,22.712,35.788
				l34.61,13.338c0.836,0.399,1.191,1.401,0.793,2.239C1027.732,2206.119,1027.13,2206.472,1026.503,2206.472z"/>
			
				<linearGradient id="SVGID_00000107576706716433274250000005049230784221636537_" gradientUnits="userSpaceOnUse" x1="1250.0956" y1="2095.7185" x2="1331.9591" y2="2095.7185">
				<stop  offset="0" style="stop-color:#A22B25"/>
				<stop  offset="1" style="stop-color:#C0423C"/>
			</linearGradient>
			<path style="fill:url(#SVGID_00000107576706716433274250000005049230784221636537_);" d="M1250.096,2093.565
				c0,0,36.45-27.592,53.039-22.408c16.589,5.185,28.824,20.725,28.824,20.725h-36.654c0,0-8.739,16.795,0.002,16.795h12.94
				C1308.247,2108.678,1274.031,2144.531,1250.096,2093.565z"/>
			
				<linearGradient id="SVGID_00000013893349323905767910000001974697902778032049_" gradientUnits="userSpaceOnUse" x1="1430.5752" y1="2283.7048" x2="1054.3647" y2="1746.261">
				<stop  offset="0" style="stop-color:#53D8FF"/>
				<stop  offset="1" style="stop-color:#3840F7"/>
			</linearGradient>
			<path style="fill:url(#SVGID_00000013893349323905767910000001974697902778032049_);" d="M1188.376,1833.372
				c0,0,42.777,169.133,100.713,237.137c0,0-15.688,17.886-38.993,23.056c0,0-88.938-77.949-116.024-132.122
				C1106.985,1907.271,1188.376,1833.372,1188.376,1833.372z"/>
			
				<linearGradient id="SVGID_00000155853656347730349650000010252866309998812043_" gradientUnits="userSpaceOnUse" x1="1170.8761" y1="1662.9529" x2="1106.5848" y2="1776.3083">
				<stop  offset="0" style="stop-color:#A22B25"/>
				<stop  offset="1" style="stop-color:#C0423C"/>
			</linearGradient>
			<path style="fill:url(#SVGID_00000155853656347730349650000010252866309998812043_);" d="M1131.209,1672.372l-42.493,77.733
				h67.055c0,0,5.391-35.536,23.027-56.922L1131.209,1672.372z"/>
			<g>
				
					<linearGradient id="SVGID_00000065068808141176744270000004372199339223156137_" gradientUnits="userSpaceOnUse" x1="1105.6313" y1="1498.4485" x2="1188.5328" y2="1684.5538">
					<stop  offset="0" style="stop-color:#A22B25"/>
					<stop  offset="1" style="stop-color:#C0423C"/>
				</linearGradient>
				<path style="fill:url(#SVGID_00000065068808141176744270000004372199339223156137_);" d="M1195.608,1579.811
					c0,0,21.29,48.907,22.72,74.577c1.429,25.67,6.961,42.326-22.72,47.495s-54.685-9.617-68.231-35.187
					c0,0-21.224-39.401-16.463-55.536C1115.676,1595.025,1195.608,1579.811,1195.608,1579.811z"/>
				
					<linearGradient id="SVGID_00000171683912484026373160000003726183538985593007_" gradientUnits="userSpaceOnUse" x1="1114.5654" y1="1549.3467" x2="1224.7751" y2="1691.2415">
					<stop  offset="0" style="stop-color:#09005D"/>
					<stop  offset="1" style="stop-color:#1A0F91"/>
				</linearGradient>
				<path style="fill:url(#SVGID_00000171683912484026373160000003726183538985593007_);" d="M1137.52,1648.312h3.752
					c0,0-15.461-31.711-1.876-37.283c13.584-5.571,67.394-16.544,79.003-35.637c11.192-18.407,1.211-42.183-13.723-48.837
					c-0.945-0.421-2.059,0.023-2.542,0.938l-1.237,2.341c-0.847,1.603-3.215,1.36-3.719-0.381l0,0
					c-0.478-1.652-2.705-2.013-3.614-0.553c-3.554,5.71-13.177,14.995-38.987,19.758c-36.622,6.759-60.833,21.581-61.428,46.89
					c-0.038,1.604-1.752,2.487-3.121,1.653c-2.703-1.648-7.03-2.421-12.812,2.441c-10.056,8.456-5.941,30.39,16.103,48.432
					c1.048,0.857,1.039,2.493-0.095,3.231c-3.996,2.602-9.952,8.792,5.484,17.044c15.79,8.441,25.136,7.52,28.662,6.618
					c0.949-0.243,1.587-1.108,1.526-2.085l-1.386-22.429c-0.072-1.16,0.85-2.141,2.012-2.141H1137.52z"/>
				
					<linearGradient id="SVGID_00000152224119197686852480000016739269573850718082_" gradientUnits="userSpaceOnUse" x1="1066.7157" y1="1515.7836" x2="1149.6172" y2="1701.889">
					<stop  offset="0" style="stop-color:#A22B25"/>
					<stop  offset="1" style="stop-color:#C0423C"/>
				</linearGradient>
				<path style="fill:url(#SVGID_00000152224119197686852480000016739269573850718082_);" d="M1138.442,1653.005
					c0,0-8.122-31.241-22.129-22.482c-14.007,8.76,7.268,35.005,18.53,36.174L1138.442,1653.005z"/>
			</g>
			
				<linearGradient id="SVGID_00000121965058689764021730000005438819825240049330_" gradientUnits="userSpaceOnUse" x1="1469.7313" y1="1641.5879" x2="1625.0491" y2="1641.5879">
				<stop  offset="0" style="stop-color:#A22B25"/>
				<stop  offset="1" style="stop-color:#C0423C"/>
			</linearGradient>
			<path style="fill:url(#SVGID_00000121965058689764021730000005438819825240049330_);" d="M1469.731,1638.893
				c0,0,6.236-26.074,25.028-22.5c18.791,3.574,61.452,26.773,72.446,22.5c10.995-4.274,25.053-14.503,32.266-10.888l-12.704,15.795
				c0,0,32.66-18.841,38.282-7.265l-54.345,30.583C1570.704,1667.119,1491.194,1659.158,1469.731,1638.893z"/>
			
				<linearGradient id="SVGID_00000041984804668894075180000006710857535310906241_" gradientUnits="userSpaceOnUse" x1="1089.5245" y1="1677.3212" x2="1693.3179" y2="2672.3027">
				<stop  offset="0" style="stop-color:#4F52FF"/>
				<stop  offset="1" style="stop-color:#4042E2"/>
			</linearGradient>
			<path style="fill:url(#SVGID_00000041984804668894075180000006710857535310906241_);" d="M1079.288,1744.02
				c0,0,18.953-31.144,142.867-23.513c64.417,3.967,209.299-52.166,241.555-80.41c0,0,21.034-0.131,40.414,20.154
				c0,0-133.816,141.217-289.83,159.268c0,0-118.401,244.009-117.566,283.609c0,0-70.276,47.16-165.63,13.406
				c0,0-2.92-67.825,34.292-161.514C1013.706,1833.372,1079.288,1744.02,1079.288,1744.02z"/>
			<path style="fill:#91B3FA;" d="M1135.47,1828.198c-0.866,0-1.601-0.666-1.672-1.543c-0.075-0.925,0.614-1.735,1.538-1.811
				c0.599-0.048,60.083-4.886,69.359-5.932c0.915-0.095,1.754,0.56,1.858,1.481c0.104,0.922-0.56,1.754-1.48,1.859
				c-9.329,1.051-68.864,5.893-69.465,5.942C1135.562,1828.196,1135.515,1828.198,1135.47,1828.198z"/>
		</g>
	</g>
</g>
</svg>
