<?xml version="1.0" standalone="no"?><svg xmlns="http://www.w3.org/2000/svg" viewBox="0 0 1440 320"><path fill="rgba(0, 0, 0, 0.4)" fill-opacity="1" d="M0,96L30,117.3C60,139,120,181,180,176C240,171,300,117,360,85.3C420,53,480,43,540,42.7C600,43,660,53,720,53.3C780,53,840,43,900,53.3C960,64,1020,96,1080,106.7C1140,117,1200,107,1260,117.3C1320,128,1380,160,1410,176L1440,192L1440,0L1410,0C1380,0,1320,0,1260,0C1200,0,1140,0,1080,0C1020,0,960,0,900,0C840,0,780,0,720,0C660,0,600,0,540,0C480,0,420,0,360,0C300,0,240,0,180,0C120,0,60,0,30,0L0,0Z"></path></svg>